<svg width="70" height="10" viewBox="0 0 70 10" fill="none" xmlns="http://www.w3.org/2000/svg">
<path d="M9.97357 3.59001C9.94214 3.49745 9.8843 3.41613 9.80717 3.35607C9.73004 3.29601 9.63701 3.25985 9.53957 3.25205L6.68905 3.02558L5.45555 0.295445C5.41626 0.207512 5.35237 0.132827 5.27157 0.0804019C5.19077 0.0279769 5.09652 5.29325e-05 5.0002 7.51793e-08C4.90389 -5.27821e-05 4.80961 0.0277677 4.72875 0.0801041C4.6479 0.13244 4.58392 0.207056 4.54454 0.294945L3.31103 3.02558L0.460516 3.25205C0.364743 3.25964 0.273184 3.29465 0.196792 3.3529C0.1204 3.41116 0.06241 3.49018 0.0297599 3.58052C-0.00289021 3.67087 -0.00881802 3.7687 0.0126857 3.86232C0.0341894 3.95595 0.082214 4.04139 0.151014 4.10844L2.25753 6.16167L1.51252 9.38724C1.4899 9.48488 1.49715 9.58706 1.53333 9.68052C1.56951 9.77399 1.63295 9.85442 1.71542 9.91139C1.79789 9.96835 1.89558 9.99922 1.99582 9.99999C2.09605 10.0007 2.1942 9.97137 2.27753 9.91567L5.00004 8.10091L7.72256 9.91567C7.80773 9.97221 7.90817 10.0013 8.01038 9.99907C8.11258 9.99683 8.21165 9.96335 8.29426 9.90313C8.37687 9.84292 8.43905 9.75885 8.47245 9.66224C8.50584 9.56563 8.50885 9.46111 8.48106 9.36274L7.56656 6.16317L9.83457 4.12244C9.98307 3.98846 10.0376 3.77948 9.97357 3.59001Z" fill="#FFD601"/>
<path d="M24.9736 3.59001C24.9421 3.49745 24.8843 3.41613 24.8072 3.35607C24.73 3.29601 24.637 3.25985 24.5396 3.25205L21.6891 3.02558L20.4555 0.295445C20.4163 0.207512 20.3524 0.132827 20.2716 0.0804019C20.1908 0.0279769 20.0965 5.29325e-05 20.0002 7.51793e-08C19.9039 -5.27821e-05 19.8096 0.0277677 19.7288 0.0801041C19.6479 0.13244 19.5839 0.207056 19.5445 0.294945L18.311 3.02558L15.4605 3.25205C15.3647 3.25964 15.2732 3.29465 15.1968 3.3529C15.1204 3.41116 15.0624 3.49018 15.0298 3.58052C14.9971 3.67087 14.9912 3.7687 15.0127 3.86232C15.0342 3.95595 15.0822 4.04139 15.151 4.10844L17.2575 6.16167L16.5125 9.38724C16.4899 9.48488 16.4972 9.58706 16.5333 9.68052C16.5695 9.77399 16.633 9.85442 16.7154 9.91139C16.7979 9.96835 16.8956 9.99922 16.9958 9.99999C17.0961 10.0007 17.1942 9.97137 17.2775 9.91567L20 8.10091L22.7226 9.91567C22.8077 9.97221 22.9082 10.0013 23.0104 9.99907C23.1126 9.99683 23.2117 9.96335 23.2943 9.90313C23.3769 9.84292 23.439 9.75885 23.4724 9.66224C23.5058 9.56563 23.5088 9.46111 23.4811 9.36274L22.5666 6.16317L24.8346 4.12244C24.9831 3.98846 25.0376 3.77948 24.9736 3.59001Z" fill="#FFD601"/>
<path d="M39.9736 3.59001C39.9421 3.49745 39.8843 3.41613 39.8072 3.35607C39.73 3.29601 39.637 3.25985 39.5396 3.25205L36.6891 3.02558L35.4555 0.295445C35.4163 0.207512 35.3524 0.132827 35.2716 0.0804019C35.1908 0.0279769 35.0965 5.29325e-05 35.0002 7.51793e-08C34.9039 -5.27821e-05 34.8096 0.0277677 34.7288 0.0801041C34.6479 0.13244 34.5839 0.207056 34.5445 0.294945L33.311 3.02558L30.4605 3.25205C30.3647 3.25964 30.2732 3.29465 30.1968 3.3529C30.1204 3.41116 30.0624 3.49018 30.0298 3.58052C29.9971 3.67087 29.9912 3.7687 30.0127 3.86232C30.0342 3.95595 30.0822 4.04139 30.151 4.10844L32.2575 6.16167L31.5125 9.38724C31.4899 9.48488 31.4972 9.58706 31.5333 9.68052C31.5695 9.77399 31.633 9.85442 31.7154 9.91139C31.7979 9.96835 31.8956 9.99922 31.9958 9.99999C32.0961 10.0007 32.1942 9.97137 32.2775 9.91567L35 8.10091L37.7226 9.91567C37.8077 9.97221 37.9082 10.0013 38.0104 9.99907C38.1126 9.99683 38.2117 9.96335 38.2943 9.90313C38.3769 9.84292 38.439 9.75885 38.4724 9.66224C38.5058 9.56563 38.5088 9.46111 38.4811 9.36274L37.5666 6.16317L39.8346 4.12244C39.9831 3.98846 40.0376 3.77948 39.9736 3.59001Z" fill="#FFD601"/>
<path d="M54.9736 3.59001C54.9421 3.49745 54.8843 3.41613 54.8072 3.35607C54.73 3.29601 54.637 3.25985 54.5396 3.25205L51.6891 3.02558L50.4555 0.295445C50.4163 0.207512 50.3524 0.132827 50.2716 0.0804019C50.1908 0.0279769 50.0965 5.29325e-05 50.0002 7.51793e-08C49.9039 -5.27821e-05 49.8096 0.0277677 49.7288 0.0801041C49.6479 0.13244 49.5839 0.207056 49.5445 0.294945L48.311 3.02558L45.4605 3.25205C45.3647 3.25964 45.2732 3.29465 45.1968 3.3529C45.1204 3.41116 45.0624 3.49018 45.0298 3.58052C44.9971 3.67087 44.9912 3.7687 45.0127 3.86232C45.0342 3.95595 45.0822 4.04139 45.151 4.10844L47.2575 6.16167L46.5125 9.38724C46.4899 9.48488 46.4972 9.58706 46.5333 9.68052C46.5695 9.77399 46.633 9.85442 46.7154 9.91139C46.7979 9.96835 46.8956 9.99922 46.9958 9.99999C47.0961 10.0007 47.1942 9.97137 47.2775 9.91567L50 8.10091L52.7226 9.91567C52.8077 9.97221 52.9082 10.0013 53.0104 9.99907C53.1126 9.99683 53.2117 9.96335 53.2943 9.90313C53.3769 9.84292 53.439 9.75885 53.4724 9.66224C53.5058 9.56563 53.5088 9.46111 53.4811 9.36274L52.5666 6.16317L54.8346 4.12244C54.9831 3.98846 55.0376 3.77948 54.9736 3.59001Z" fill="#FFD601"/>
<path d="M69.9736 3.59001C69.9421 3.49745 69.8843 3.41613 69.8072 3.35607C69.73 3.29601 69.637 3.25985 69.5396 3.25205L66.6891 3.02558L65.4555 0.295445C65.4163 0.207512 65.3524 0.132827 65.2716 0.0804019C65.1908 0.0279769 65.0965 5.29325e-05 65.0002 7.51793e-08C64.9039 -5.27821e-05 64.8096 0.0277677 64.7288 0.0801041C64.6479 0.13244 64.5839 0.207056 64.5445 0.294945L63.311 3.02558L60.4605 3.25205C60.3647 3.25964 60.2732 3.29465 60.1968 3.3529C60.1204 3.41116 60.0624 3.49018 60.0298 3.58052C59.9971 3.67087 59.9912 3.7687 60.0127 3.86232C60.0342 3.95595 60.0822 4.04139 60.151 4.10844L62.2575 6.16167L61.5125 9.38724C61.4899 9.48488 61.4972 9.58706 61.5333 9.68052C61.5695 9.77399 61.633 9.85442 61.7154 9.91139C61.7979 9.96835 61.8956 9.99922 61.9958 9.99999C62.0961 10.0007 62.1942 9.97137 62.2775 9.91567L65 8.10091L67.7226 9.91567C67.8077 9.97221 67.9082 10.0013 68.0104 9.99907C68.1126 9.99683 68.2117 9.96335 68.2943 9.90313C68.3769 9.84292 68.439 9.75885 68.4724 9.66224C68.5058 9.56563 68.5088 9.46111 68.4811 9.36274L67.5666 6.16317L69.8346 4.12244C69.9831 3.98846 70.0376 3.77948 69.9736 3.59001Z" fill="#FFD601"/>
</svg>
